<?xml version="1.0" encoding="utf-8"?>
<!-- Generator: Adobe Illustrator 20.1.0, SVG Export Plug-In . SVG Version: 6.00 Build 0)  -->
<svg version="1.1" id="Capa_1" xmlns="http://www.w3.org/2000/svg" xmlns:xlink="http://www.w3.org/1999/xlink" x="0px" y="0px"
	 viewBox="0 0 240 240" style="enable-background:new 0 0 240 240;" xml:space="preserve">
<style type="text/css">
	.st0{font-family:'STYuanti-TC-Bold';}
	.st1{font-size:32.3256px;}
</style>
<g>
	<path d="M228.5,102.4c-6.9-8.6-15.7-14.2-26.4-16.8c3.4-5.1,5.1-10.8,5.1-17.1c0-8.8-3.1-16.2-9.3-22.4c-6.2-6.2-13.7-9.3-22.4-9.3
		c-7.8,0-14.7,2.6-20.5,7.7c-4.9-11.9-12.7-21.4-23.3-28.6C120.9,8.8,109.1,5.2,96.3,5.2c-17.5,0-32.4,6.2-44.8,18.5
		S32.9,51.1,32.9,68.6c0,1.1,0.1,2.9,0.3,5.3c-9.8,4.6-17.5,11.4-23.3,20.4c-5.8,9.1-8.7,19-8.7,29.7c0,15.3,5.4,28.3,16.3,39.2
		c10.8,10.8,23.9,16.3,39.2,16.3h134.6c13.1,0,24.3-4.6,33.6-13.9c9.3-9.3,13.9-20.5,13.9-33.6C238.8,120.8,235.3,111,228.5,102.4z
		 M158.4,99c-0.8,0.8-1.7,1.2-2.8,1.2h-27.7v43.6c0,1.1-0.4,2-1.2,2.8c-0.8,0.8-1.7,1.2-2.8,1.2h-23.7c-1.1,0-2-0.4-2.8-1.2
		c-0.8-0.8-1.2-1.7-1.2-2.8v-43.6H68.6c-1.2,0-2.1-0.4-2.9-1.1c-0.7-0.7-1.1-1.7-1.1-2.9c0-1,0.4-2,1.3-3l43.4-43.4
		c0.7-0.7,1.7-1.1,2.9-1.1c1.2,0,2.1,0.4,2.9,1.1l43.6,43.6c0.7,0.7,1.1,1.7,1.1,2.9C159.6,97.3,159.2,98.2,158.4,99z"/>
</g>
<text transform="matrix(1 0 0 1 -7.617188e-02 231.8115)" class="st0 st1">Drop Image Here</text>
</svg>
