<?xml version="1.0" encoding="utf-8"?>
<!-- Generator: Adobe Illustrator 20.1.0, SVG Export Plug-In . SVG Version: 6.00 Build 0)  -->
<svg version="1.1" id="Capa_1" xmlns="http://www.w3.org/2000/svg" xmlns:xlink="http://www.w3.org/1999/xlink" x="0px" y="0px" width="240px" height="240px"
	 viewBox="0 0 553.8 553.8" style="enable-background:new 0 0 553.8 553.8;" xml:space="preserve">
<style type="text/css">
	.st0{font-family:'STYuanti-TC-Bold';}
	.st1{font-size:74.5912px;}
</style>
<g>
	<path d="M527.2,236.2c-15.9-19.9-36.2-32.8-61-38.7c7.8-11.8,11.7-24.9,11.7-39.4c0-20.2-7.1-37.4-21.4-51.7
		C442.2,92.1,425,85,404.8,85c-18.1,0-33.9,5.9-47.4,17.7c-11.2-27.4-29.2-49.4-53.8-65.9c-24.6-16.6-51.8-24.8-81.5-24.8
		c-40.3,0-74.8,14.3-103.4,42.8c-28.6,28.5-42.8,63-42.8,103.4c0,2.5,0.2,6.6,0.6,12.3c-22.5,10.5-40.3,26.2-53.7,47.1
		c-13.3,20.9-20,43.8-20,68.5c0,35.2,12.5,65.3,37.5,90.4c25,25,55.1,37.5,90.4,37.5h310.6c30.3,0,56.1-10.7,77.5-32.1
		c21.4-21.4,32.1-47.2,32.1-77.5C551,278.8,543,256.1,527.2,236.2z M365.6,228.5c-1.8,1.8-3.9,2.7-6.4,2.7h-64v100.5
		c0,2.5-0.9,4.6-2.7,6.4c-1.8,1.8-3.9,2.7-6.4,2.7h-54.8c-2.5,0-4.6-0.9-6.4-2.7c-1.8-1.8-2.7-3.9-2.7-6.4V231.2h-64
		c-2.7,0-4.9-0.9-6.6-2.6c-1.7-1.7-2.6-3.9-2.6-6.6c0-2.3,0.9-4.6,2.9-6.9L252.1,115c1.7-1.7,3.9-2.6,6.6-2.6c2.7,0,4.9,0.9,6.6,2.6
		l100.5,100.5c1.7,1.7,2.6,3.9,2.6,6.6C368.3,224.5,367.4,226.7,365.6,228.5z"/>
</g>
<text transform="matrix(1 0 0 1 -0.1757 534.9054)" class="st0 st1">Drop Image Here</text>
</svg>
