<svg id="圖層_1" data-name="圖層 1" xmlns="http://www.w3.org/2000/svg" viewBox="0 0 1920 358.48"><defs><style>.cls-1{fill:#fff;}</style></defs><title>工作區域 1</title><path class="cls-1" d="M-11.5-9.7V370.18H1926.78V-9.7ZM1836.64,115.7l-35.11,201.17c-1.54,9.08-9.09,16.71-16.54,21.51-8.18,5.27-18.52,5.73-27.74,3.63-8.58-1.95-17.14-9.07-21.51-16.54a32.83,32.83,0,0,1-4.26-12.46c-8.71,15.55-29,21-44.76,14.32-16.77-7.08-25-24.9-20.84-42.47l3.33-14q-16.15,27.78-30.8,56.42c-8.24,16-29.36,21.33-45,14.73a36.34,36.34,0,0,1-22.08-32.34c-10.32,10.77-25.84,14.68-40.19,8.62a37.16,37.16,0,0,1-20.26-21.73,35.14,35.14,0,0,1-27.29-.19,36.18,36.18,0,0,1-20.84-42.47q2.21-8.72,4.43-17.44Q1454,257.93,1441.89,280a33.14,33.14,0,0,1-14.35,13.64l-1.14,4.73c-3.9,16.37-21.48,24.51-36.9,21-16.2-3.68-24.66-21.67-21-36.9l4-16.77c-6.55,14.72-13,29.5-19.4,44.25-2.68,6.16-11.6,12.35-17.93,13.79a35.75,35.75,0,0,1-16,0c-12.6-2.88-22.19-16.28-22-28.93a365.54,365.54,0,0,1,7.13-64.12c-11.73,23.44-24.43,46.31-40.51,67.23-5,6.56-10,11.22-17.93,13.79-6.33,2-13.53,1-19.53-1.51A31,31,0,0,1,1212,298a30.28,30.28,0,0,1-4-13.11l-17.43,29.68a30,30,0,0,1-37.46,12.27,31,31,0,0,1-14.35-12.27,19.76,19.76,0,0,1-1.07-1.93l-4.61,9.75c-6.39,13.53-24.75,17.63-37.46,12.27-14-5.89-20.86-20.75-17.37-35.39q2.27-9.54,4.66-19c-8.3,12.82-17.1,25.34-26.63,37.43-4.21,5.39-14.59,9.09-21.21,8.79a35.58,35.58,0,0,1-15.14-4.1c-7.36-3.89-12-11.15-13.82-19.08q-3,6.55-6,13.12c-5,10.91-20,14-30,9.82-10.81-4.56-17.19-16.77-13.9-28.31L968,256.72l-23.89,40.54a24,24,0,0,1-30,9.82c-10.48-4.42-17.63-16.94-13.9-28.31l1.49-4.54-23,37.63c-7,11.45-21.15,14.78-32.84,8.61-5.16-2.74-9.47-8.77-11-14.34-1.81-6.59-.36-12.49,2.42-18.49v0h0q-8.21,15.6-16.35,31.23c-5.59,10.64-19.42,14.28-30,9.82s-17.49-16.88-13.9-28.31l24.34-77.5c-17.93,32.63-34.85,65.85-51.72,99-5.47,10.69-19.59,14.21-30,9.82-10.58-4.46-17.49-16.88-13.9-28.31L733,216.74c-20.11,33.5-39,67.78-57.77,102-5.82,10.53-19.33,14.32-30,9.82a24.08,24.08,0,0,1-13.9-28.31l13.55-51.17,5.71-26.72-39.11,82.29c-3.86,8.11-14.84,10.59-22.48,7.36-7.94-3.34-13.11-12.66-10.42-21.23l7-22.45Q574.16,293.57,563,318.9c-3.65,8.19-15,10.52-22.48,7.36-8-3.38-13-12.61-10.42-21.23l20.1-67.43q-2.24,5.06-4.44,10.14-2.51,5.84-5,11.69l-1.42,3.35-.54,1.18-.5,1.2-1.06,2.51q-9.61,23.05-19,46.21c-3.82,9.36-11.68,15-22.14,12.57-9.22-2.14-15.4-13.12-12.58-22.12l-.07,0,.35-.85,16.73-53.09L507.25,229q-6,13.08-11.7,26.31l-1.44,3.37-.89,2.1-.5,1.2-1.06,2.54q-2.28,5.47-4.51,11-4.75,11.87-9.25,23.74l-.1.31h0c-3.58,9.42-11.89,14.86-22.12,12.53-8.45-2-14.4-11.41-13.07-19.92q-3.9,11.44-7.58,23a18.4,18.4,0,0,1-22.14,12.57c-9.57-2.14-15-13-12.57-22.14l21.56-82.37q-2.76,6.27-5.47,12.55-2.38,5.52-4.73,11.06c-1.86,4.37-1.38,3.25-3.22,7.64q-9,21.77-18,43.63c-3.84,9.35-11.67,15-22.14,12.57-9.57-2.14-15-13-12.57-22.14v0h-.05l.16-.39L380,196.35q-6.1,11.51-11.86,23.2-10.17,20.76-19.25,42l-1.49,3.56q-1.05,2.5-2,5-2.2,5.42-4.34,10.87-4.21,10.86-8.16,21.73l-.08.27h0c-3.44,9.49-12,14.88-22.14,12.57-9.35-2.14-15.25-13.14-12.57-22.14l27.37-92.34c-.54,1.18-1.09,2.35-1.62,3.54q-20.71,46.08-38.62,93.31l-.25.85-.07,0v0c-2.68,7.09-13.75,4.36-11.57-3.19h0l0-.11,43.26-149.7Q285,217.37,258.87,291.19c-2.57,7.2-13.92,4.24-11.57-3.19Q266.84,226.32,284,164q-24.41,67.49-46.29,135.85c-2.34,7.33-13.74,4.26-11.57-3.19l0-.08h0l.43-1.33q28.79-99,52.26-199.27c-1.5,3.92-2.89,7.88-4.23,11.83-22.74,67.51-43.94,135.57-65.94,203.34-2.37,7.33-13.44,4.34-11.57-3.19v0h0l0-.13L226,192c5.87-23.57,13-47.51,17.23-71.74q-30.79,85.53-53.49,173.68l-1.21,4.8h0c-1.91,7.49-13.46,4.3-11.57-3.19l29.13-115.28-44.3,120-.37,1.1h0c-2.64,7.16-14.06,4.19-11.57-3.19q26.58-78.86,46.07-159.81-22.33,57.47-42.29,115.76-8.91,28.26-18.64,56.27c-2.51,7.24-13.94,4.21-11.57-3.18h0l.83-2.4q8.36-26,17.17-51.83l.09-.25q14.87-47,27.46-94.61L109.49,313.2c-2.71,7.07-13.91,4.31-11.57-3.19h0l.07-.18,17.94-57.53L147.2,152c6.43-20.62,13.33-41.51,16.72-62.85l-8.82,22.79L77.38,312.7c-2.75,7.08-14.24,4.08-11.57-3.19,6.7-18.34,13.39-36.73,19.89-55.09,15-42.51,28.94-85.53,39.38-129.38L56.16,310a6,6,0,1,1-11.57-3.19L66,189.27h0c1.38-7.6,12.94-4.36,11.57,3.19L68.35,243,138.18,55.57c2.76-7.4,12.57-4.36,11.57,3.19h0l-.05.14q-4,29-10.35,57.52c-.55,2.47-1.13,4.92-1.7,7.39l28.15-72.74c2.47-6.4,11.22-5.3,11.79,1.6,1.6,19.38-1.14,38.75-5.71,57.56-1.7,7-3.57,14-5.53,21l23.89-62.39c2.73-7.14,13.22-4.47,11.57,3.19q-4.78,22.13-10.06,44.14,9.61-24.23,19.63-48.3l0-.19h0c2.92-7,13.12-4.56,11.57,3.19q-7.21,36-15.84,71.71l26.51-71.86c2.64-7.15,13.49-4.41,11.57,3.19l-4.86,19.24Q243.7,84.45,247,75.8c2.37-6.14,11.61-5.48,11.79,1.6.54,21.57-2.93,42.94-7.71,64.08,9.66-29.87,17.11-63.5,38.34-87.66,4.17-4.77,11.22.38,10,5.84q-8.48,38-17.71,75.73,14.63-39.56,30.11-78.8c2.78-7,13.42-4.48,11.57,3.19l0,.07h0l-.13.34q-12,49.52-25.39,98.61,19.52-45.41,41.14-89.9c3.06-6.23,12.84-1.76,11,4.62L314.7,195.88c9.83-21.59,20.38-42.76,31.21-63.83l16-54.06h0c2.86-9.66,12.47-14.77,22.14-12.57,9.35,2.14,15.25,13.14,12.57,22.14l-6.11,20.62Q401,92.39,412.17,77c5.37-7.36,13.7-11.07,22.48-7.36a18.06,18.06,0,0,1,10.42,21.23l-2.95,11.16c6.67-11.5,13.64-22.83,21-33.93,5-7.55,14-11,22.48-7.36A18.07,18.07,0,0,1,496,82l-1.32,5.06q6.56-11.76,13.38-23.37A18,18,0,0,1,526,55.14c7.56,1,12.49,6,15,12.89a46.46,46.46,0,0,1,2.67,17.09q9.14-14.74,18.72-29.21c5-7.55,14-10.95,22.48-7.36C592.8,51.89,598,61.21,595.3,69.78l-5.72,18.13q4.8-7,9.82-13.94c5.37-7.36,13.7-11.06,22.48-7.36,8,3.38,13,12.61,10.42,21.23l-5.15,17.29q10.11-17.56,20.95-34.7c4.85-7.64,14.1-10.9,22.48-7.36A18.65,18.65,0,0,1,681,74.74L684.66,67c3.86-8.11,14.84-10.59,22.48-7.36a17.71,17.71,0,0,1,6,4.13,26.91,26.91,0,0,1,5.77.66c12.76,2.89,20,17.4,16.76,29.52l-13.16,49.7A864.18,864.18,0,0,1,785,60.33c7.08-8.25,20.14-8.47,29.08-3.75s14,17.38,11,27.1L819.8,100.5c12.52-18.33,25.69-36.24,39.68-53.59,6.79-8.42,20.33-8.37,29.08-3.75,9.06,4.8,14,17.38,11,27.1L888.35,106c11.34-16.46,23.18-32.6,35.68-48.3,6.73-8.45,20.37-8.35,29.08-3.75s13,15.42,11.49,24.83L968,73.09a24.08,24.08,0,0,1,30-9.82c8.7,3.67,15.1,12.92,14.89,22.47l8.78-14.91a24,24,0,0,1,30-9.82A24.4,24.4,0,0,1,1066,78.59c.63-1.9,1.24-3.81,1.87-5.71v.07c5.28-16,20.37-24.76,36.9-21,15.29,3.47,25.93,22,21,36.9l-.75,2.27a319.75,319.75,0,0,1,35-40.82c9.84-9.6,24.42-11,36.35-4.69,5.68,3,9.89,8.71,12.27,14.35a36.1,36.1,0,0,1,2.05,6.61q12.27-15.39,25.64-30c9.24-10,24.87-10.75,36.35-4.69a26,26,0,0,1,9.22,8.68l8.34-14.2a30.06,30.06,0,0,1,29.92-14.45c12.35,1.66,20.94,10,24.94,21.49a61.28,61.28,0,0,1,2.74,11.46c4.52-4.28,9.25-8.4,14.24-12.3,6.21-4.89,12.79-9.17,21.21-8.79a35.58,35.58,0,0,1,15.14,4.1c11.6,6.13,17.28,21.58,13.79,33.88l-2.57,9.05q10.17-14.72,21.19-28.94c4.21-5.4,14.64-9.08,21.21-8.79a35.57,35.57,0,0,1,10.3,2,39.71,39.71,0,0,1,14.28.69c13.07,3,23.42,15.29,26,28.6Q1520,43.82,1538.25,24.1c12.27-13.23,33.64-13.34,47.27-2.81a37.3,37.3,0,0,1,12.9,18.7,27,27,0,0,1,1,4.36c11.38-16.42,30.9-22.21,49-12.63,5.14,2.71,9.69,7.59,12.86,13q6.27-7.6,12.87-14.93C1686.28,16.4,1708,16.52,1721.47,27a37.3,37.3,0,0,1,12.9,18.7,30,30,0,0,1,.57,15.51A34.45,34.45,0,0,1,1748,58.71a42.7,42.7,0,0,1,18.17,4.92,31.76,31.76,0,0,1,13.45,14.07A36.79,36.79,0,0,1,1833,88C1838.41,96.33,1838.27,106.37,1836.64,115.7Z"/></svg>