<?xml version="1.0" encoding="utf-8"?>
<!-- Generator: Adobe Illustrator 20.1.0, SVG Export Plug-In . SVG Version: 6.00 Build 0)  -->
<svg version="1.1" id="圖層_1" xmlns="http://www.w3.org/2000/svg" xmlns:xlink="http://www.w3.org/1999/xlink" x="0px" y="0px"
	 viewBox="0 0 512 512" style="enable-background:new 0 0 512 512;" xml:space="preserve">
<style type="text/css">
	.st0{fill:#FFFFFF;}
</style>
<g>
	<path class="st0" d="M387.5,263.6c-17.2-15.3-39.9,12.1-100,11.2c-22.1-0.3-47.3-5.7-97.8-16.4c-22.9-4.9-46.8-0.7-70.2-1.5
		c-3.5-0.1-13-0.5-18.1,5.5c-3.4,4.1-3.3,9.4-3.2,11.5c0.4,20.6-0.1,41.2,1.1,61.8c1.8,32.5-3.3,41.2,5.5,52.5
		c5.9,7.5,14,11.1,20,13c53.3,7.6,97.6,9.9,129,10.5c106.4,2.1,127.9-10.1,135.9-24.9c2.4-4.4,2.9-12.6,3.9-28.9
		C396.8,301.6,398.5,273.4,387.5,263.6z"/>
	<path class="st0" d="M-3.5-26.1v546H515v-546H-3.5z M497.7,430.6c0,0-3.2,4.7-8.4,8.2c-47,32.2-129.2,40.2-129.2,40.2
		c-31.2,3-70.4,5.6-115.8,5.8c-49.2-0.3-89.6-6.1-118.9-11.9c0,0-28.5-5.6-99.8-38.4c-2.9-1.3-9.9-4.7-14.4-11.9
		c-3.9-6.3-4.1-12.6-4.2-15.4c-1.7-60.7,4.7-138.4,4.7-138.4c2.2-26.5,2.5-39.7,13.5-50.7c9.8-9.9,23.3-13,34.4-15.6
		c10.1-2.3,25.8-6,42.1,0.4c10.5,4.1,12.4,8.9,22,15.4c19,12.7,39.9,13,51.5,13.1c45.3,0.6,52.1-30.2,88.4-27.1
		c29.9,2.5,33,24,59.2,21.3c28-2.9,37.8-28.9,58.8-24.2c15.8,3.5,14.9,19.3,30.1,22.5c23.5,4.9,39.4-29.8,60.5-24.6
		c12.3,3,18.4,17.5,23.2,29.2c10,23.9,5.6,37,6.4,75.7c0,1.8,1.4,69.3,1.3,106.5C503.1,414.4,503,422.8,497.7,430.6z"/>
</g>
<g transform="translate(0.000000,512.000000) scale(0.100000,-0.100000)">
	<path d="M2508,5035c-2-1-64-6-138-9c-74-4-142-9-150-11c-8-2-57-6-108-10c-51-3-100-8-110-9c-9-2-42-7-72-11
		c-199-25-440-93-581-161c-161-79-242-159-254-253c-3-25-21-75-40-111c-33-65-48-111-60-185c-7-47-7-338,0-375c13-68,19-89,41-138
		c13-30,38-71,55-93l31-39l-22-34c-39-64-81-90-231-145c-273-101-502-207-594-276c-52-39-93-88-138-166c-36-62-101-265-118-369
		c-15-93-18-489-6-940c4-140,10-365,13-500c8-333,8-342,28-372s90-80,186-132c99-55,576-290,610-301c3-1,14-5,25-9
		c164.1-59.7,190.6-68.5,228-80c32.9-10.1,55.9-16.2,93-26c68.7-18.2,223.3-54.6,359-74c28-4,75-9,105-12c30-3,66-7,80-10
		c144-25,1081-25,1385,1c22,2,83,6,135,10c52,3,109,8,125,11c17,3,49,7,70,9c90,7,321,45,490,79c45,9,304,76,365,94
		c302,90,642,236,739,318c34,28,45,72,60,229c8,95,6,1080-3,1270c-2,50-7,171-11,270c-8,230-10,257-25,335c-25,140-91,261-189,352
		c-78,72-139,112-316,203c-131,68-260,144-303,179c-58,48-148,152-163,188c-9,23-8,31,10,54c48,61,66,181,65,434c0,238-9,336-34,402
		c-35,94-133,183-271,246c-69,32-237,88-291,97c-18,3-49,10-68,15s-51,11-70,14c-113,17-182,26-240,32
		C3135,5032,2515,5041,2508,5035z M2915,4846c88-4,178-8,200-11c22-2,65-7,95-10c30-3,66-7,80-9c14-2,46-7,71-10
		c267-37,511-116,525-170c3-12-3-47-13-77c-20-58-20-59-10-104c25-103,30-165,30-332c1-144-1-153-24-187c-29-43-86-72-245-124
		c-206-69-293-91-295-76c-3,19-7,169-10,360c-3,245-5,241,108,278c93,30,153,41,154,30c1-5,2-34,4-64c4-119,16-229,37-337
		c14-73,39-92,70-53c17,20,18,35,13,119c-10,163-7,378,5,400c6,12,18,21,26,21c29,0,82,31,87,50c10,38-16,39-103,4
		c-166-68-401-126-640-159c-24-4-47-8-50-10c-3-1-32-6-65-10c-33-4-71-8-85-10c-14-2-56-6-95-10c-38-4-78-9-87-10
		c-43.6-4.3-88.6-8-135-11c-40.7-2.6-80.5-4.5-119.3-5.8c-11.8-0.3-23.6-0.6-35.4-0.8c-32.4-0.6-248.9-4.5-428.3,6.7
		c-88.8,5.5-175.5,13.6-215,21c-16,3-46,7-65,10c-19,2-45,7-56,9c-12,2-39,7-59,10c-21,4-70,16-109,28c-246,73-272,171-70,264
		c90,42,312,103,466,129c116,20,150,24,213,31c126,12,158,14,345,20c102,4,186,7,187,8C2619,4856,2685,4854,2915,4846z M1368,4304
		c38-12,51-22,54-39c4-21,4-93-3-294c-2-67,0-76,21-93c27-22,95-25,103-4c10,26,19,129,22,256c2,69,3,129,4,134c1,10,208,2,219-9
		c9-8,8-140-3-310c-9-151,2-209,40-227c32-15,72-3,81,25c9.4,29.2,8.5,46.9,9,158c0.1,19.2,0.4,10.5,1.4,70.7
		c1,59.6,1.5,89.9,0.8,114.2c-0.8,27.4-1.9,36-2.2,66.1c-0.5,63.8,3.9,71.5,8,75.5c11.3,10.6,38.3,5.4,103-1.5c101-10,123-17,130-40
		c9-26,8-396-1-480c-9-81-18-88-125-89c-29,0-163,11-200,17c-14,2-45,7-70,10c-38,5-120,20-228,42c-88,17-225,94-242,135
		c-6,14-15,53-20,85c-9,68-6,386,4,403C1284,4324,1309,4323,1368,4304z M3201,4263c5-13,11-90,14-171c3-81,8-194,10-252
		c5-132-2-150-70-167c-28-7-95-14-149-15l-100-3l-7,35c-4,19-7,132-5,250c3,280,10,298,123,319c27,5,68,12,93,16s46,8,48,9
		C3168,4295,3193,4282,3201,4263z M2797,4207c13-14,9-555-5-569c-6-6-45-13-87-14c-71-3-75-2-76,19c-1,12-3,47-5,77s-5,147-7,260
		c-3,245-6,239,101,236C2757,4216,2792,4211,2797,4207z M2498,4193c5-10,10-137,11-282c1-146,4-268,6-272c9-14-31-20-132-18
		c-64,1-106,6-111,13c-8,13-12,541-3,554c9,15,39,20,133,21C2476,4210,2491,4207,2498,4193z M3831.3,3590.2
		c3.6-3.1,9.5-8.2,16.6-14.7c38-34.6,63-64.1,71.1-73.5c69.9-81.2,179.5-177.5,196-192c22.4-19.7,40.9-35.1,51.7-44
		c11.8-7.1,30.8-18.4,54.3-32c80.8-46.6,141.9-77.3,159-86c70.2-35.9,285.9-146.3,356-274c22.1-40.3,53.5-125.7,62.1-167
		c0.1-0.5,1-5,2.2-11.1c0.4-1.8,8.9-44.7,14.7-85.9c6.2-43.9,7.3-82.4,10-99c16-97,27-1031,13-1031c-4,0-13,8-20,18
		c-26,34-171,164-214,192c-27,17-53,26-64,23c-29-8-70-60-64-81c19-58,47-80,244-190c90-51,119-72,119-89c0-10,2-95,5-190
		c5-122,3-174-5-179c-7-4-63,47-138,122c-203,208-313,273-367,219c-27-27-33-85-10-104c7-6,40-25,72-41c33-16,109-67,169-112
		c61-46,136-100,166-120c86-57,88-62,45-103c-43-40-154-96-195-97c-22-1-53,25-177,148c-178,179-233,212-268,162
		c-40-56-18-93,116-203c121-99,178-152,178-167c0-5-17-16-37-24c-21-8-52-21-68-29c-45-20-87-24-115-9c-20,10-101,94-130,134
		c-15,21-89,60-113,60c-60,0-107-44-93-88c6-17,141-113,179-128c9-3,17-10,17-14c0-17-272-97-389-115c-20-3-58-9-86-15
		c-27-5-72-12-100-15c-27-3-63-8-80-10c-57-8-120-15-205-21c-47-3-103-7-125-9c-253-25-1063-25-1205-1c-144,25-176,30-180,31
		c-3,1-25,5-50,9s-90,19-145,33c-55,13-108,26-118,28c-75,16-474,149-632,210c-138,54-328,145-382,184c-26,19-43,40-47,58
		c-35,177-43,1487-10,1685c14,84,49,198,76,249c68,128,146,178,459,290c75,27,140,49,143,49c4,0,46,18,93,41c78,37,239,149,272,189
		c12,15,19,15,51,4c46-16,225-51,300-58c170-18,270-21,610-21c419,0,593,7,771,30c31,4,39,1,53-20c27-41,77-85,98-85
		c26,0,33,24,22,79l-9,46l65,17l65,18l35-43c72-87,144-158,167-163c26-7,73,28,73,53c0,8-20,35-45,62c-24,26-51,64-60,84
		c-14,34-14,37,7,51c12,9,35,16,50,16c23,0,38-16,107-117c98-144,166-223,192-223c10,0,26,11,35,25c16,25,15,27-36,113
		c-29,48-68,106-87,129c-40,50-56,90-48,121c1.9,8.4,4.4,13.9,8.7,17.2c6.9,5.2,16.1,3.9,24.3,2.8
		C3813.3,3597.3,3821.7,3595.5,3831.3,3590.2z"/>
	<path d="M4094,3030c-53-22-72-107-34-148c43-46,91-59,244-67c49-2,93-8,98-13c4-4,10-50,13-102c32-597,49-765,85-846
		c30-68,76-69,100-1c14,40,3,767-14,972c-2,22-4,45-5,52c-2,27-51,55-156,89c-60,20-119,38-131,40s-39,10-60,17
		C4187,3039,4123,3043,4094,3030z"/>
	<path d="M1349,2626c-2-2-38-6-79-9c-41-4-109-9-150-13c-140-11-171-32-201-140c-17-61-18-97-14-398c8-522,14-676,29-746
		c27-125,59-171,145-215c100-50,320-103,546-130c28-4,59-8,70-10c11-1,56-6,100-10s87-9,95-10c8-2,49-6,90-9c41-4,93-9,115-12
		c216-25,785-25,995,1c19,2,80,9,135,15s116,13,136,16c20,2,56,6,80,8c171,15,212,20,279,37c90,23,144,49,188,88
		c38,35,82,118,94,176c31,157,29,1109-3,1228c-6,24-27,57-48,78c-60,60-141,63-346,14c-273-65-428-93-568-100c-42-2-80-6-85-8
		c-21-11-481,6-503,19c-3,1-28,6-55,9c-27,4-121,25-209,47c-174,43-170,42-235,53c-25,4-54,10-65,12C1862,2623,1355,2631,1349,2626z
		 M1751.9,2468.9c97.9-7.6,218.5-17,363.1-52.9c108.3-26.8,162.2-61.5,319-82c23-3,47-7,55-10c69-23,473-23,651,1c19,2,55,7,80,10
		c25,3,101,17,170,31c152,31,136,28,240,53c47,12,111,24,142,27c54,6,58,5,67-17c10-25,8-887-2-999c-11-124-18-164-30-189
		c-14-29-59-58-102-65c-16-2-46-7-65-10s-44-7-55-10c-30.4-8.3-54.3-8-80-11c-203.1-23.3-226.8-25.8-267.6-29.7
		c-27.1-2.6-67.8-6.3-117.4-10.3c-49.7-4-178.1-12.2-311-20c-188-11-491-6-674,10c-22,2-80,6-130,10c-49,4-101,9-115,11
		c-14,2-52,6-85,9c-33,3-96,10-140,16c-231,28-378,55-436,80c-73,32-124,94-144,177c-13,58-15,128-10,525c4,364,8,466,20,493
		c8,19,18,35,22,35c38,6,76,9,193,15c74,3,136,7,137,8c0.2,0,2.9,0.1,7.8,0.2c13.5,0.3,26.4,0.6,38.9,0.8c11.3,0.2,69.5,1.1,105.3,1
		C1664.5,2475.7,1721.1,2471.3,1751.9,2468.9z"/>
	<path d="M1274,2346c-25-11-33-22-39-52c-7-42-8-216-1-274c3-19,7-60,11-90c17-156,43-233,86-263c11-8,28-14,37-12s23,4,29,4
		c15,1,41,50,38,71c-1,8-6,65-10,125c-4,61-8,128-10,150c-8,93-7,157,3,167c6,6,34,12,64,14c99,8,125,44,71,99
		C1492,2346,1345,2378,1274,2346z"/>
</g>
</svg>
