<?xml version="1.0" encoding="iso-8859-1"?>
<!-- Generator: Adobe Illustrator 19.0.0, SVG Export Plug-In . SVG Version: 6.00 Build 0)  -->
<svg version="1.1" id="Layer_1" xmlns="http://www.w3.org/2000/svg" xmlns:xlink="http://www.w3.org/1999/xlink" x="0px" y="0px"
	 viewBox="0 0 512.005 512.005" style="enable-background:new 0 0 512.005 512.005;" xml:space="preserve">
<path style="fill:#333333;" d="M156.095,355.908c-9.087-9.089-23.824-9.089-32.912,0c-9.089,9.087-9.089,23.823,0,32.912
	l116.359,116.361c0.545,0.543,1.117,1.058,1.713,1.547c0.264,0.219,0.546,0.408,0.818,0.613c0.334,0.251,0.661,0.51,1.008,0.743
	c0.33,0.222,0.673,0.413,1.013,0.616c0.312,0.186,0.617,0.383,0.939,0.554c0.349,0.186,0.704,0.343,1.06,0.51
	c0.334,0.158,0.663,0.324,1.004,0.467c0.346,0.143,0.697,0.258,1.049,0.383c0.366,0.132,0.728,0.271,1.1,0.385
	c0.352,0.105,0.706,0.185,1.061,0.273c0.382,0.098,0.76,0.203,1.15,0.281c0.408,0.081,0.816,0.127,1.227,0.188
	c0.341,0.048,0.678,0.113,1.022,0.147c0.763,0.074,1.53,0.116,2.296,0.116s1.533-0.04,2.296-0.116
	c0.346-0.034,0.681-0.099,1.022-0.147c0.411-0.059,0.819-0.107,1.227-0.188c0.389-0.078,0.768-0.185,1.15-0.281
	c0.355-0.088,0.709-0.166,1.061-0.273c0.372-0.113,0.734-0.253,1.1-0.385c0.352-0.126,0.703-0.24,1.049-0.383
	c0.343-0.143,0.672-0.309,1.004-0.467c0.355-0.166,0.711-0.324,1.06-0.51c0.321-0.172,0.625-0.368,0.939-0.554
	c0.34-0.203,0.683-0.394,1.013-0.616c0.349-0.233,0.676-0.492,1.008-0.743c0.273-0.205,0.554-0.394,0.818-0.613
	c0.596-0.487,1.168-1.002,1.713-1.547L388.82,388.821c9.089-9.087,9.089-23.824,0-32.912c-9.087-9.089-23.823-9.089-32.912,0
	l-76.632,76.634V79.458l76.636,76.634c4.543,4.546,10.499,6.817,16.455,6.817s11.913-2.271,16.455-6.817
	c9.089-9.087,9.089-23.824,0-32.912L272.463,6.82c-0.545-0.545-1.117-1.058-1.713-1.547c-0.261-0.216-0.538-0.402-0.807-0.604
	c-0.34-0.254-0.67-0.515-1.021-0.751c-0.327-0.219-0.667-0.408-1.001-0.608c-0.316-0.189-0.625-0.388-0.953-0.562
	c-0.343-0.183-0.694-0.338-1.046-0.504c-0.338-0.16-0.67-0.329-1.016-0.472c-0.341-0.141-0.689-0.256-1.035-0.379
	c-0.369-0.133-0.737-0.276-1.116-0.389c-0.346-0.104-0.694-0.18-1.043-0.268c-0.388-0.098-0.771-0.206-1.167-0.285
	c-0.399-0.079-0.802-0.126-1.202-0.183c-0.349-0.051-0.694-0.116-1.049-0.152c-0.74-0.073-1.482-0.11-2.225-0.112
	C256.048,0.003,256.028,0,256.003,0c-0.025,0-0.045,0.003-0.07,0.003c-0.743,0.002-1.485,0.039-2.225,0.112
	c-0.355,0.036-0.7,0.101-1.049,0.152c-0.402,0.057-0.805,0.104-1.202,0.183c-0.396,0.078-0.779,0.186-1.167,0.285
	c-0.349,0.088-0.697,0.163-1.043,0.268c-0.379,0.115-0.745,0.256-1.116,0.389c-0.346,0.124-0.694,0.237-1.035,0.379
	c-0.348,0.143-0.68,0.312-1.016,0.472c-0.352,0.164-0.703,0.321-1.046,0.504c-0.327,0.174-0.636,0.372-0.953,0.562
	c-0.335,0.2-0.675,0.389-1.001,0.608c-0.352,0.236-0.681,0.496-1.021,0.751c-0.268,0.202-0.546,0.388-0.807,0.604
	c-0.596,0.489-1.168,1.004-1.713,1.547L123.184,123.181c-9.089,9.087-9.089,23.824,0,32.912c9.087,9.089,23.824,9.089,32.912,0
	l76.634-76.636v353.083L156.095,355.908z"/>
<g>
</g>
<g>
</g>
<g>
</g>
<g>
</g>
<g>
</g>
<g>
</g>
<g>
</g>
<g>
</g>
<g>
</g>
<g>
</g>
<g>
</g>
<g>
</g>
<g>
</g>
<g>
</g>
<g>
</g>
</svg>
